<svg xmlns="http://www.w3.org/2000/svg" width="20" height="20"><g data-name="Group 74" fill="#d72619"><path data-name="Path 8" d="M10 0A10 10 0 000 10a10 10 0 0010 10 10 10 0 0010-10A10 10 0 0010 0zm0 18a8.011 8.011 0 01-8-8 8.011 8.011 0 018-8 8.011 8.011 0 018 8 8.011 8.011 0 01-8 8z"/><path data-name="Path 42" d="M3.956 7.667h7.333V9H3.956zm0-1.334h7.333V5H3.956zm0 5.333h4.667v-1.333H3.956zM13.963 9.58l.473-.473a.664.664 0 01.94 0l.473.473a.664.664 0 010 .94l-.473.473zm-.473.473l-3.534 3.534V15h1.413l3.533-3.533z"/></g></svg>