<svg xmlns="http://www.w3.org/2000/svg" width="20" height="20"><g data-name="Group 73" fill="#d72619"><path data-name="Path 8" d="M10 0A10 10 0 000 10a10 10 0 0010 10 10 10 0 0010-10A10 10 0 0010 0zm0 18a8.011 8.011 0 01-8-8 8.011 8.011 0 018-8 8.011 8.011 0 018 8 8.011 8.011 0 01-8 8z"/><path data-name="Path 39" d="M14.5 6.625H10L8.875 5.5H5.5a1.128 1.128 0 00-1.125 1.125v6.75A1.128 1.128 0 005.5 14.5h9a1.128 1.128 0 001.125-1.125V7.75A1.128 1.128 0 0014.5 6.625zm0 6.75h-9v-6.75h2.908L9.533 7.75H14.5z"/></g></svg>