<svg xmlns="http://www.w3.org/2000/svg" width="20" height="20"><path data-name="Path 7" d="M10 0a10 10 0 1010 10A10 10 0 0010 0zm0 18a8 8 0 118-8 8.011 8.011 0 01-8 8zm-1-4h2v2H9zm1.61-9.96a4 4 0 00-4.43 2.79A.907.907 0 007.05 8h.2a.963.963 0 00.88-.67 2 2 0 012.3-1.28A2.023 2.023 0 0112 8.15c-.1 1.34-1.62 1.63-2.45 2.88 0 .01-.01.01-.01.02s-.02.03-.03.05a3.331 3.331 0 00-.25.5c-.01.03-.03.05-.04.08a.637.637 0 00-.02.07A3.718 3.718 0 009 13h2a2.124 2.124 0 01.28-1.07c.02-.03.03-.06.05-.09a2.758 2.758 0 01.28-.39c.01-.01.02-.03.03-.04a3.514 3.514 0 01.33-.34c.96-.91 2.26-1.65 1.99-3.56a4.075 4.075 0 00-3.35-3.47z" fill="#d72619"/></svg>