<svg xmlns="http://www.w3.org/2000/svg" width="20" height="20"><g data-name="Group 70"><path data-name="Path 8" d="M10 0A10 10 0 000 10a10 10 0 0010 10 10 10 0 0010-10A10 10 0 0010 0zm0 18a8.011 8.011 0 01-8-8 8.011 8.011 0 018-8 8.011 8.011 0 018 8 8.011 8.011 0 01-8 8z" fill="#d72619"/><g data-name="Group 72"><g data-name="Group 71" fill="#d72619"><path data-name="Path 36" d="M14.522 4.913H5.478a1.127 1.127 0 00-1.131 1.131v6.783a1.13 1.13 0 001.131 1.131h2.261v1.131h4.522v-1.132h2.261a1.134 1.134 0 001.131-1.131V6.044a1.13 1.13 0 00-1.131-1.131zm0 7.914H5.478V6.044h9.044z"/><path data-name="Rectangle 36" d="M6.608 7.881h4.522v.848H6.608z"/><path data-name="Path 37" d="M12.544 8.728h.852v-.847h-.848v-.707h-.852v2.261h.848z"/><path data-name="Rectangle 37" d="M8.869 10.142h4.522v.848H8.869z"/><path data-name="Path 38" d="M7.456 11.696h.852V9.435h-.852v.707h-.848v.848h.848z"/></g></g></g></svg>